<svg xmlns="http://www.w3.org/2000/svg" xmlns:xlink="http://www.w3.org/1999/xlink" viewBox="0 0 6000 2000"><defs><style type="text/css">@import url('https://fonts.googleapis.com/css?family=Oswald:bi,normal,i,b'); </style></defs><defs><style type="text/css">@import url('https://fonts.googleapis.com/css?family=Arimo:bi,normal,i,b'); </style></defs><g style="background:rgba(208,2,27,1);"><rect x="0" y="0" width="6000" height="2000" fill="rgba(208,2,27,1)"> </rect><g id="Lj3OMvWscv" transform="translate(310.83337524786134, 348.645601293838) rotate(0)" style="transform-origin:top left; filter:;"><g style="transform:;"><defs><clipPath id="clip-Lj3OMvWscv"><rect x="0" y="0" width="1506.5268124992651" height="1506.5268124992654"> </rect></clipPath></defs><image x="0" y="0" width="1506.5268124992654" height="1506.5268124992656" preserveAspectRatio="none" clip-path="url(#clip-Lj3OMvWscv)"> </image></g></g><g id="_AvqFWsuuX" transform="translate(852.6683033549933, 32.37848891133967) rotate(16.13326737876534)" style="transform-origin:top left; filter:;"><g style="transform:;"><defs><clipPath id="clip-_AvqFWsuuX"><rect x="0" y="0" width="863.5759211055952" height="863.575921105595"> </rect></clipPath></defs><image x="0" y="0" width="863.5759211055951" height="863.5759211055951" preserveAspectRatio="none" clip-path="url(#clip-_AvqFWsuuX)"> </image></g></g><g id="GnuBkFx453" transform="translate(1732.8170240489512, 213.64560129383648) rotate(0)" style="transform-origin:top left; filter:;"><g><text fill="black" y="224" font-size="224px" text-anchor="start" font-family="Oswald" font-style="normal" font-weight="bold" stroke-width="6" stroke="rgba(248,231,28,1)"><tspan x="0" dy="0">WELLCOME TO </tspan></text></g></g><g id="5rfUwJAZMO" transform="translate(644.4444444444625, 1745.813947335422) rotate(0)" style="transform-origin:top left; filter:;"><g><defs><clipPath id="clip-5rfUwJAZMO"><path d="M 84.87080411007197 0 L 109.81370761312382 50.539842684414275 L 165.58773540216544 58.64428331379257 L 125.2292697561187 97.98406450821162 L 134.7566111161757 153.53272696138725 L 84.87080411007197 127.30620616510791 L 34.98499710396826 153.5327269613873 L 44.51233846402525 97.98406450821163 L 4.15387281797851 58.6442833137926 L 59.927900607020106 50.53984268441428 Z"></path></clipPath></defs><path d="M 84.87080411007197 0 L 109.81370761312382 50.539842684414275 L 165.58773540216544 58.64428331379257 L 125.2292697561187 97.98406450821162 L 134.7566111161757 153.53272696138725 L 84.87080411007197 127.30620616510791 L 34.98499710396826 153.5327269613873 L 44.51233846402525 97.98406450821163 L 4.15387281797851 58.6442833137926 L 59.927900607020106 50.53984268441428 Z" fill="rgba(248,231,28,1)" transform="scale(1, 1)"></path><path d="M 84.87080411007197 0 L 109.81370761312382 50.539842684414275 L 165.58773540216544 58.64428331379257 L 125.2292697561187 97.98406450821162 L 134.7566111161757 153.53272696138725 L 84.87080411007197 127.30620616510791 L 34.98499710396826 153.5327269613873 L 44.51233846402525 97.98406450821163 L 4.15387281797851 58.6442833137926 L 59.927900607020106 50.53984268441428 Z" fill="none" stroke="#0c0c0c" stroke-width="0" clip-path="url(#clip-5rfUwJAZMO)" transform="scale(1, 1)" stroke-dasharray=""></path></g></g><g id="OFWaO2xKky" transform="translate(809.4843691672767, 1745.8139473354222) rotate(0)" style="transform-origin:top left; filter:;"><g><defs><clipPath id="clip-OFWaO2xKky"><path d="M 84.87080411007197 0 L 109.81370761312382 50.539842684414275 L 165.58773540216544 58.64428331379257 L 125.2292697561187 97.98406450821162 L 134.7566111161757 153.53272696138725 L 84.87080411007197 127.30620616510791 L 34.98499710396826 153.5327269613873 L 44.51233846402525 97.98406450821163 L 4.15387281797851 58.6442833137926 L 59.927900607020106 50.53984268441428 Z"></path></clipPath></defs><path d="M 84.87080411007197 0 L 109.81370761312382 50.539842684414275 L 165.58773540216544 58.64428331379257 L 125.2292697561187 97.98406450821162 L 134.7566111161757 153.53272696138725 L 84.87080411007197 127.30620616510791 L 34.98499710396826 153.5327269613873 L 44.51233846402525 97.98406450821163 L 4.15387281797851 58.6442833137926 L 59.927900607020106 50.53984268441428 Z" fill="rgba(248,231,28,1)" transform="scale(1, 1)"></path><path d="M 84.87080411007197 0 L 109.81370761312382 50.539842684414275 L 165.58773540216544 58.64428331379257 L 125.2292697561187 97.98406450821162 L 134.7566111161757 153.53272696138725 L 84.87080411007197 127.30620616510791 L 34.98499710396826 153.5327269613873 L 44.51233846402525 97.98406450821163 L 4.15387281797851 58.6442833137926 L 59.927900607020106 50.53984268441428 Z" fill="none" stroke="#0c0c0c" stroke-width="0" clip-path="url(#clip-OFWaO2xKky)" transform="scale(1, 1)" stroke-dasharray=""></path></g></g><g id="9F3aK3sgqE" transform="translate(983.9276608847507, 1745.813947335422) rotate(0)" style="transform-origin:top left; filter:;"><g><defs><clipPath id="clip-9F3aK3sgqE"><path d="M 84.87080411007197 0 L 109.81370761312382 50.539842684414275 L 165.58773540216544 58.64428331379257 L 125.2292697561187 97.98406450821162 L 134.7566111161757 153.53272696138725 L 84.87080411007197 127.30620616510791 L 34.98499710396826 153.5327269613873 L 44.51233846402525 97.98406450821163 L 4.15387281797851 58.6442833137926 L 59.927900607020106 50.53984268441428 Z"></path></clipPath></defs><path d="M 84.87080411007197 0 L 109.81370761312382 50.539842684414275 L 165.58773540216544 58.64428331379257 L 125.2292697561187 97.98406450821162 L 134.7566111161757 153.53272696138725 L 84.87080411007197 127.30620616510791 L 34.98499710396826 153.5327269613873 L 44.51233846402525 97.98406450821163 L 4.15387281797851 58.6442833137926 L 59.927900607020106 50.53984268441428 Z" fill="rgba(248,231,28,1)" transform="scale(1, 1)"></path><path d="M 84.87080411007197 0 L 109.81370761312382 50.539842684414275 L 165.58773540216544 58.64428331379257 L 125.2292697561187 97.98406450821162 L 134.7566111161757 153.53272696138725 L 84.87080411007197 127.30620616510791 L 34.98499710396826 153.5327269613873 L 44.51233846402525 97.98406450821163 L 4.15387281797851 58.6442833137926 L 59.927900607020106 50.53984268441428 Z" fill="none" stroke="#0c0c0c" stroke-width="0" clip-path="url(#clip-9F3aK3sgqE)" transform="scale(1, 1)" stroke-dasharray=""></path></g></g><g id="TreL_EBPH9" transform="translate(1153.6692691048947, 1745.813947335422) rotate(0)" style="transform-origin:top left; filter:;"><g><defs><clipPath id="clip-TreL_EBPH9"><path d="M 84.87080411007197 0 L 109.81370761312382 50.539842684414275 L 165.58773540216544 58.64428331379257 L 125.2292697561187 97.98406450821162 L 134.7566111161757 153.53272696138725 L 84.87080411007197 127.30620616510791 L 34.98499710396826 153.5327269613873 L 44.51233846402525 97.98406450821163 L 4.15387281797851 58.6442833137926 L 59.927900607020106 50.53984268441428 Z"></path></clipPath></defs><path d="M 84.87080411007197 0 L 109.81370761312382 50.539842684414275 L 165.58773540216544 58.64428331379257 L 125.2292697561187 97.98406450821162 L 134.7566111161757 153.53272696138725 L 84.87080411007197 127.30620616510791 L 34.98499710396826 153.5327269613873 L 44.51233846402525 97.98406450821163 L 4.15387281797851 58.6442833137926 L 59.927900607020106 50.53984268441428 Z" fill="rgba(248,231,28,1)" transform="scale(1, 1)"></path><path d="M 84.87080411007197 0 L 109.81370761312382 50.539842684414275 L 165.58773540216544 58.64428331379257 L 125.2292697561187 97.98406450821162 L 134.7566111161757 153.53272696138725 L 84.87080411007197 127.30620616510791 L 34.98499710396826 153.5327269613873 L 44.51233846402525 97.98406450821163 L 4.15387281797851 58.6442833137926 L 59.927900607020106 50.53984268441428 Z" fill="none" stroke="#0c0c0c" stroke-width="0" clip-path="url(#clip-TreL_EBPH9)" transform="scale(1, 1)" stroke-dasharray=""></path></g></g><g id="bXajyjbKv6" transform="translate(1323.410877325039, 1745.813947335422) rotate(0)" style="transform-origin:top left; filter:;"><g><defs><clipPath id="clip-bXajyjbKv6"><path d="M 84.87080411007197 0 L 109.81370761312382 50.539842684414275 L 165.58773540216544 58.64428331379257 L 125.2292697561187 97.98406450821162 L 134.7566111161757 153.53272696138725 L 84.87080411007197 127.30620616510791 L 34.98499710396826 153.5327269613873 L 44.51233846402525 97.98406450821163 L 4.15387281797851 58.6442833137926 L 59.927900607020106 50.53984268441428 Z"></path></clipPath></defs><path d="M 84.87080411007197 0 L 109.81370761312382 50.539842684414275 L 165.58773540216544 58.64428331379257 L 125.2292697561187 97.98406450821162 L 134.7566111161757 153.53272696138725 L 84.87080411007197 127.30620616510791 L 34.98499710396826 153.5327269613873 L 44.51233846402525 97.98406450821163 L 4.15387281797851 58.6442833137926 L 59.927900607020106 50.53984268441428 Z" fill="rgba(248,231,28,1)" transform="scale(1, 1)"></path><path d="M 84.87080411007197 0 L 109.81370761312382 50.539842684414275 L 165.58773540216544 58.64428331379257 L 125.2292697561187 97.98406450821162 L 134.7566111161757 153.53272696138725 L 84.87080411007197 127.30620616510791 L 34.98499710396826 153.5327269613873 L 44.51233846402525 97.98406450821163 L 4.15387281797851 58.6442833137926 L 59.927900607020106 50.53984268441428 Z" fill="none" stroke="#0c0c0c" stroke-width="0" clip-path="url(#clip-bXajyjbKv6)" transform="scale(1, 1)" stroke-dasharray=""></path></g></g><g id="sqx4FAMVd3" transform="translate(2045.2308171524037, 508.1690120602565) rotate(0)" style="transform-origin:top left; filter:;"><g><text fill="rgba(248,231,28,1)" y="277" font-size="277px" text-anchor="start" font-family="Oswald" font-style="normal" font-weight="bold" stroke-width="28.5" stroke="rgba(0,0,0,1)"><tspan x="0" dy="0">NATTY´S ARMY </tspan></text></g></g><g id="SCx6tDRo93" transform="translate(2277.730817152404, 1874.555555555567) rotate(0)" style="transform-origin:top left; filter:;"><g><text fill="rgba(255,255,255,1)" y="67" font-size="67px" text-anchor="start" font-family="Arimo" font-style="normal" font-weight="bold" stroke-width="2" stroke="rgba(0,0,0,1)"><tspan x="0" dy="0">POWERED BY HEDERA NETWORK </tspan></text></g></g><g id="cUrZWQV2-J" transform="translate(2597.6446102558625, 842.1690120602565) rotate(0)" style="transform-origin:top left; filter:;"><g><text fill="rgba(255,255,255,1)" y="450" font-size="450px" text-anchor="start" font-family="Oswald" font-style="normal" font-weight="bold" stroke-width="46.261589472576965" stroke="rgba(245,166,35,1)"><tspan x="0" dy="0">FITNESS MEME </tspan></text></g></g></g></svg>